# xmcd CD database file
#
# Track frame offsets:
#	150
#	13418
#	21216
#	34398
#	40394
#	66701
#	84704
#	91700
#	108560
#	115706
#	124644
#	127892
#
# Disc length: 1973 seconds
#
# Revision: 1
# Processed by: cddbd v1.5.2PL0 Copyright (c) Steve Scherf et al.
# Submitted via: CDex 1.51
#
DISCID=a307b30c
DTITLE=Dr. Sri K. Prvathi Kumar - Mantrams
DYEAR=1900
DGENRE=New Age
TTITLE0=Hamsa Siva Soham
TTITLE1=Om Gam Ganapatye Namah
TTITLE2=Om Aim Hrim Srim
TTITLE3=Dum Durgai Namah
TTITLE4=Om Saravana Bhavya Namah
TTITLE5=Om Srim Amalayai Namah
TTITLE6=Om Srim Amalayai Namanh Cancion
TTITLE7=Sam
TTITLE8=Samno Mitrah Sam
TTITLE9=Sahanavavathu
TTITLE10=Loka Samastha
TTITLE11=Om Purna Madah
EXTD=
EXTT0=
EXTT1=
EXTT2=
EXTT3=
EXTT4=
EXTT5=
EXTT6=
EXTT7=
EXTT8=
EXTT9=
EXTT10=
EXTT11=
PLAYORDER=
